<?xml version="1.0" standalone="no"?>
<!DOCTYPE svg PUBLIC "-//W3C//DTD SVG 20010904//EN"
 "http://www.w3.org/TR/2001/REC-SVG-20010904/DTD/svg10.dtd">
<svg version="1.0" xmlns="http://www.w3.org/2000/svg"
 width="811.000000pt" height="1254.000000pt" viewBox="0 0 811.000000 1254.000000"
 preserveAspectRatio="xMidYMid meet">
<metadata>
Created by potrace 1.16, written by Peter Selinger 2001-2019
</metadata>
<g transform="translate(0.000000,1254.000000) scale(0.100000,-0.100000)"
fill="#000000" stroke="none">
<path d="M0 6270 l0 -6270 4055 0 4055 0 0 6270 0 6270 -4055 0 -4055 0 0
-6270z m4698 4838 c66 -239 200 -517 382 -793 95 -144 274 -443 317 -530 54
-108 89 -213 109 -326 20 -113 15 -192 -22 -354 -14 -64 -24 -118 -22 -121 3
-2 28 25 56 61 29 35 76 82 105 104 79 59 251 155 405 226 192 88 362 174 461
234 46 28 86 49 88 47 2 -2 -1 -16 -7 -31 -23 -60 -40 -216 -40 -365 0 -239
-27 -569 -56 -681 -7 -31 -28 -88 -45 -125 -64 -144 -71 -162 -67 -174 2 -7
28 5 70 33 37 24 88 57 115 72 26 15 63 37 81 48 l33 19 -16 -38 c-9 -22 -32
-68 -51 -103 -19 -35 -32 -66 -29 -69 13 -13 219 17 527 78 181 36 318 94 483
205 36 24 65 39 65 33 0 -5 -9 -62 -20 -126 -11 -65 -31 -211 -45 -327 -57
-491 -104 -732 -179 -925 -89 -229 -216 -360 -459 -473 -125 -59 -127 -73 -12
-99 58 -13 138 -47 292 -123 116 -58 217 -105 224 -105 8 0 9 -3 3 -9 -11 -11
-121 -38 -190 -47 -127 -16 -93 -54 136 -155 129 -57 377 -146 474 -169 43
-11 80 -21 82 -23 2 -1 -79 -68 -179 -147 -320 -254 -464 -390 -663 -625 -98
-116 -245 -253 -349 -327 -65 -46 -129 -78 -240 -118 -85 -30 -235 -108 -235
-121 0 -3 33 -12 73 -18 66 -11 183 -60 146 -61 -9 0 -47 -9 -83 -20 -80 -25
-84 -41 -21 -88 25 -18 110 -114 191 -213 136 -167 200 -232 275 -276 16 -10
29 -20 29 -23 0 -3 -39 -19 -87 -34 -49 -16 -162 -57 -253 -92 -215 -82 -316
-110 -463 -131 -148 -21 -236 -11 -368 43 -49 20 -92 35 -94 32 -2 -2 9 -24
24 -48 30 -49 63 -128 142 -345 28 -77 61 -159 74 -183 17 -30 21 -44 12 -47
-20 -7 -283 -53 -437 -76 -192 -29 -409 -32 -495 -6 -77 24 -153 62 -187 95
l-28 26 0 -55 c0 -30 5 -74 11 -98 5 -24 8 -46 5 -48 -6 -7 -124 90 -125 102
0 6 26 44 60 85 173 216 331 519 415 798 14 48 36 101 49 117 30 41 70 121 84
170 20 67 60 535 61 703 0 51 4 82 11 82 49 0 158 -26 176 -42 37 -34 80 -129
108 -237 38 -150 84 -231 132 -231 21 0 15 26 -16 83 -16 28 -37 81 -46 117
-29 118 -56 190 -91 240 l-34 50 27 5 c146 30 260 83 366 170 119 99 196 228
238 401 12 49 23 94 24 100 6 20 107 39 210 39 55 0 174 -3 265 -5 91 -3 176
-1 189 4 l24 8 -19 -24 c-10 -14 -43 -53 -71 -87 -79 -92 -68 -110 24 -41 77
59 198 209 181 226 -3 3 -41 -3 -84 -12 -64 -15 -111 -17 -249 -14 -265 7
-365 4 -414 -14 -24 -9 -45 -15 -46 -14 -1 2 2 46 8 98 23 222 -51 477 -179
619 -87 95 -252 164 -399 165 -96 1 -161 -25 -240 -95 -40 -36 -62 -47 -112
-57 -34 -7 -84 -22 -112 -34 -29 -11 -53 -19 -56 -17 -2 3 5 33 15 68 11 34
31 129 45 209 14 81 34 172 44 202 18 51 19 55 3 58 -9 1 -44 -6 -76 -18 -33
-11 -62 -20 -67 -20 -4 0 0 21 8 48 10 31 17 122 23 272 l8 225 -39 40 c-57
60 -104 172 -134 321 -15 71 -32 135 -39 142 -9 10 -24 10 -71 0 -75 -15 -187
0 -311 43 -100 34 -320 89 -464 116 -71 13 -147 17 -305 17 -247 0 -264 -3
-615 -129 -118 -42 -222 -79 -231 -82 -13 -4 -17 6 -23 44 -10 75 -35 143 -54
143 -37 0 -210 -88 -342 -174 -174 -114 -454 -354 -533 -456 -52 -68 -89 -103
-156 -144 -140 -86 -264 -215 -323 -333 -27 -55 -30 -70 -26 -131 3 -65 9 -79
52 -137 5 -7 -13 -62 -49 -151 -46 -111 -67 -149 -105 -189 -70 -75 -91 -139
-100 -310 -4 -77 -11 -149 -15 -160 -4 -11 -25 -43 -45 -70 -62 -83 -98 -156
-115 -228 -16 -71 -14 -108 12 -190 8 -27 13 -50 12 -52 -2 -1 -35 -13 -74
-25 -51 -16 -104 -24 -195 -27 l-125 -5 -154 162 c-84 88 -152 162 -150 164 2
2 60 22 127 45 128 42 226 94 421 223 57 37 107 68 112 68 20 0 7 16 -30 37
-43 25 -154 123 -147 130 2 3 36 9 76 14 39 5 75 11 80 14 15 9 1 32 -92 148
-161 202 -238 389 -393 946 -90 320 -97 358 -67 346 46 -17 143 -35 198 -35
94 0 332 69 599 174 81 32 100 35 190 36 126 0 147 11 69 36 -57 18 -118 66
-143 112 -10 18 -4 21 74 41 46 11 93 21 105 21 11 0 20 3 20 6 0 3 -34 44
-75 91 -92 105 -148 212 -165 315 -16 92 -8 348 15 473 37 210 129 544 199
722 19 48 53 136 75 194 61 157 55 155 130 60 74 -94 157 -174 301 -291 58
-46 125 -105 150 -130 62 -64 144 -188 169 -257 39 -106 35 -106 66 -13 53
160 129 286 229 377 30 28 126 102 214 166 168 122 312 245 426 361 76 79 193
226 233 293 14 24 27 43 30 43 7 0 -6 -171 -18 -244 -6 -32 -8 -61 -5 -64 3
-3 43 31 88 74 46 43 126 108 178 144 234 159 553 469 753 732 45 59 84 107
87 108 3 0 15 -37 28 -82z m-553 -3052 c94 -19 215 -49 270 -66 209 -66 237
-72 341 -74 l102 -1 22 -108 c24 -114 73 -232 132 -313 l31 -43 -5 -203 c-6
-204 -13 -247 -61 -358 -4 -8 -3 -21 2 -29 8 -13 18 -12 70 2 79 22 84 22 77
-7 -3 -13 -13 -72 -22 -132 -20 -136 -47 -241 -79 -311 -43 -96 -21 -102 125
-37 56 25 105 39 142 42 54 4 60 7 93 48 22 27 59 55 100 75 54 26 75 31 137
31 40 0 93 -5 118 -12 85 -23 187 -80 236 -132 55 -59 114 -181 143 -297 51
-207 7 -543 -97 -731 -65 -119 -214 -241 -356 -290 -107 -38 -190 -45 -305
-26 -75 13 -106 15 -114 7 -7 -7 -16 -97 -23 -219 -12 -212 -27 -396 -44 -536
-11 -84 -40 -160 -89 -229 -17 -23 -37 -69 -44 -103 -19 -81 -96 -272 -168
-415 -110 -220 -295 -468 -485 -649 -186 -177 -479 -304 -772 -335 l-63 -6 12
23 c7 13 36 48 65 79 59 61 84 110 84 162 0 42 29 81 81 107 21 11 41 20 43
20 3 0 9 -18 12 -39 21 -133 162 -174 270 -79 67 59 75 105 48 279 -5 33 -2
40 38 75 162 146 201 239 180 437 -10 97 2 118 97 164 127 62 280 204 359 335
72 121 92 249 52 334 -32 66 -95 130 -158 161 -52 26 -66 28 -162 27 -208 -3
-405 -89 -725 -319 -181 -130 -283 -192 -411 -248 -138 -62 -268 -103 -414
-133 -116 -24 -138 -26 -305 -21 -202 7 -292 22 -507 88 -161 49 -285 61 -364
35 -75 -25 -144 -82 -177 -146 -25 -48 -28 -63 -24 -122 6 -92 42 -163 126
-246 l67 -67 33 -125 c18 -69 38 -150 46 -180 l14 -55 -25 30 c-48 58 -164
234 -183 278 -10 24 -26 50 -34 58 -119 111 -151 150 -183 214 -51 105 -62
195 -40 330 l17 106 -41 97 c-74 173 -129 432 -155 737 -18 211 -19 248 -5
240 5 -3 18 -35 29 -70 39 -125 74 -163 175 -189 66 -17 94 -14 216 30 65 23
97 27 245 33 143 6 178 10 217 28 83 38 128 103 148 213 16 86 30 111 97 166
89 72 107 103 111 191 4 67 1 80 -26 136 -17 34 -58 91 -91 127 -33 36 -65 79
-71 95 -5 17 -14 82 -19 146 -9 125 -22 161 -75 217 -73 78 -153 98 -331 81
-125 -12 -132 -11 -177 9 -67 31 -141 45 -214 40 -35 -2 -64 -3 -64 -2 0 6 52
138 73 185 l25 56 57 8 c80 10 134 30 350 133 356 169 744 305 1030 363 149
30 400 42 570 29 319 -25 576 -66 870 -137 282 -68 387 -68 451 -2 22 23 29
40 32 89 7 91 -16 140 -108 230 -148 146 -373 242 -732 315 -200 40 -316 48
-603 42 -293 -7 -374 -14 -630 -58 -321 -56 -535 -116 -730 -208 -47 -22 -85
-36 -85 -31 0 13 170 170 281 260 57 46 148 112 201 147 116 76 277 158 288
146 11 -12 30 -97 30 -137 0 -67 1 -68 123 -19 158 62 479 169 562 187 54 12
116 15 265 12 176 -4 212 -8 365 -40z m-152 -345 c404 -72 662 -184 805 -346
59 -67 78 -147 47 -192 -39 -56 -123 -55 -382 6 -396 93 -824 150 -1144 153
-226 1 -386 -33 -766 -163 -274 -94 -365 -131 -628 -254 -238 -112 -321 -137
-372 -116 -37 15 -53 48 -53 107 0 113 134 278 330 407 106 69 374 198 510
245 190 65 472 124 750 156 199 23 211 24 510 21 229 -2 295 -6 393 -24z
m-2361 -1292 c29 -6 71 -20 93 -31 36 -19 50 -20 165 -13 210 14 254 4 317
-69 40 -45 50 -80 57 -203 3 -56 12 -117 20 -136 8 -19 44 -68 82 -108 79 -87
103 -135 104 -207 0 -69 -17 -101 -87 -158 -81 -65 -100 -96 -122 -197 -21
-101 -40 -132 -102 -167 -40 -22 -58 -25 -214 -31 -157 -5 -177 -8 -261 -37
-107 -37 -161 -40 -221 -11 -48 23 -58 37 -80 112 -24 84 -58 133 -122 176
-106 72 -141 131 -141 235 0 89 22 148 90 236 32 41 63 86 71 100 7 14 16 85
20 165 4 79 15 163 24 193 39 129 151 184 307 151z m-466 -1086 c18 -16 34
-30 34 -34 0 -21 -224 -69 -328 -69 -58 0 -65 3 -100 36 l-37 36 57 -6 c74 -8
194 9 272 39 33 12 62 23 64 24 2 0 19 -11 38 -26z m69 -392 l7 -73 -23 7
c-42 13 -106 53 -166 107 -83 74 -193 181 -193 189 0 3 46 9 103 12 67 3 128
13 177 29 l75 24 6 -111 c3 -60 9 -143 14 -184z m3484 -342 l44 -19 -5 -78
c-7 -107 -34 -186 -83 -240 -38 -42 -44 -45 -124 -57 -128 -21 -151 -53 -151
-212 0 -108 -19 -167 -61 -196 l-23 -17 12 -113 c20 -182 -3 -247 -131 -370
l-82 -78 1 -52 c0 -29 4 -81 8 -118 11 -84 -5 -118 -69 -149 -76 -37 -124 -13
-140 70 -17 87 -62 102 -152 50 -64 -37 -103 -91 -103 -143 0 -49 -11 -69 -75
-139 -29 -31 -68 -83 -86 -115 -33 -56 -34 -61 -32 -163 1 -58 7 -143 12 -190
22 -175 5 -373 -39 -461 -11 -20 -47 -61 -81 -90 -74 -65 -81 -78 -114 -209
-14 -57 -31 -110 -37 -119 -21 -26 -42 -40 -60 -41 -28 0 -74 68 -96 143 -48
165 -101 497 -122 772 -27 344 -26 338 -96 435 -39 54 -44 100 -19 170 26 72
20 117 -19 156 -55 55 -105 47 -184 -29 -37 -36 -47 -56 -78 -155 -39 -126
-68 -168 -107 -156 -52 15 -81 64 -108 184 -15 68 -51 107 -107 116 -23 3 -48
14 -57 24 -9 10 -29 69 -46 131 -16 62 -39 144 -50 182 -11 38 -22 88 -25 111
-2 22 -22 133 -44 246 -22 113 -43 230 -46 260 -3 30 -7 65 -10 78 -4 18 0 22
19 22 20 0 31 -15 70 -94 130 -262 346 -302 473 -87 10 17 21 31 24 31 3 0 14
-16 24 -35 28 -51 128 -142 183 -167 68 -31 175 -31 224 0 20 12 43 22 52 22
29 0 103 -83 117 -133 8 -26 19 -47 25 -47 55 1 26 91 -56 171 l-57 56 27 56
27 55 41 -38 c82 -77 201 -88 320 -30 73 36 113 89 144 192 l20 66 52 -26 c96
-50 227 -27 293 51 45 53 84 148 91 220 3 37 9 67 13 67 4 0 21 -7 38 -15 42
-21 139 -36 182 -29 93 17 193 102 227 194 9 25 22 60 30 79 l13 34 63 -7 c34
-4 82 -16 106 -27z m-249 0 c0 -30 -56 -123 -96 -157 -54 -48 -109 -64 -181
-52 -51 8 -113 37 -113 51 0 4 55 36 123 70 158 81 267 117 267 88z m-480
-258 c0 -59 -36 -161 -71 -204 -70 -85 -164 -96 -262 -31 l-40 27 53 31 c29
17 110 72 179 123 69 51 129 92 134 92 4 1 7 -17 7 -38z m-449 -308 c-31 -121
-89 -183 -192 -204 -84 -18 -171 14 -217 79 l-21 29 78 21 c82 22 250 86 317
120 21 11 41 16 43 11 1 -6 -2 -31 -8 -56z m-1319 -47 c81 -24 165 -47 188
-51 22 -4 42 -10 45 -15 7 -11 -45 -84 -77 -110 -65 -50 -159 -31 -228 47 -42
48 -100 142 -100 162 0 17 15 14 172 -33z m802 -93 c-18 -76 -78 -148 -135
-163 -78 -21 -184 22 -258 106 -46 52 -54 79 -20 69 32 -10 307 -7 354 3 64
15 66 15 59 -15z m-1057 -450 c13 -12 34 -71 63 -178 23 -88 49 -185 58 -215
19 -70 58 -110 106 -110 49 0 70 -27 91 -113 30 -125 81 -187 153 -187 64 0
103 59 152 226 16 57 28 79 59 107 50 45 75 53 106 33 36 -23 39 -55 16 -131
-32 -103 -28 -125 44 -225 36 -50 55 -100 55 -139 -1 -26 -1 -25 -32 12 -52
64 -103 80 -176 54 -55 -20 -93 -67 -144 -176 -56 -121 -108 -191 -142 -191
-49 0 -101 86 -142 232 -37 135 -48 159 -115 265 -101 158 -109 181 -109 308
-1 97 -6 130 -44 278 -44 170 -44 190 1 150z m2204 -894 c6 -12 15 -48 19 -80
9 -63 16 -80 73 -173 70 -114 58 -197 -35 -244 -42 -22 -51 -23 -77 -12 -47
19 -61 69 -61 218 0 148 13 253 36 287 20 31 30 31 45 4z"/>
<path d="M3907 6886 c-67 -18 -113 -59 -174 -152 -41 -62 -64 -85 -105 -109
-65 -36 -118 -89 -142 -139 -38 -81 -39 -219 -1 -310 19 -44 19 -102 0 -186
-21 -95 -19 -225 4 -276 28 -60 83 -101 181 -131 77 -24 91 -32 156 -94 117
-112 209 -139 336 -98 59 19 85 34 135 81 34 32 64 58 65 59 2 1 62 4 133 8
102 6 141 12 180 30 60 26 112 74 131 118 18 42 18 132 -1 208 -20 84 -19 114
10 199 54 160 13 295 -107 357 -55 28 -68 53 -68 134 0 97 -31 164 -96 205
-56 35 -105 38 -229 15 -44 -9 -90 -13 -102 -10 -12 3 -52 26 -89 52 -76 53
-132 63 -217 39z m194 -95 c87 -60 121 -67 220 -47 110 23 155 23 186 0 53
-40 66 -69 73 -156 7 -109 27 -148 91 -183 105 -57 133 -158 85 -303 -30 -90
-31 -122 -11 -207 34 -140 13 -216 -75 -264 -38 -21 -62 -26 -175 -31 -148 -7
-177 -17 -240 -85 -43 -46 -130 -85 -189 -85 -65 0 -124 30 -205 104 -80 74
-92 81 -191 111 -114 35 -145 78 -142 202 1 46 8 112 17 148 20 90 19 140 -6
210 -30 81 -30 195 -1 251 22 44 69 88 147 137 34 22 60 50 82 87 48 83 105
137 156 148 82 19 101 15 178 -37z"/>
<path d="M3920 6712 c-19 -11 -58 -50 -86 -87 -32 -42 -69 -78 -95 -93 -61
-33 -89 -60 -110 -107 -23 -50 -24 -87 -2 -197 15 -81 15 -93 0 -172 -36 -179
-15 -276 67 -315 72 -36 80 -32 242 107 192 165 333 278 516 414 l146 109 -23
35 c-13 20 -27 54 -30 77 -4 23 -19 67 -33 97 -47 97 -116 121 -224 80 -75
-29 -120 -26 -160 8 -79 68 -139 80 -208 44z"/>
<path d="M4409 6192 c-223 -172 -244 -189 -462 -376 l-129 -111 28 -22 28 -22
111 107 c170 164 378 334 573 468 53 37 100 70 105 74 4 3 -3 16 -15 27 l-23
21 -216 -166z"/>
<path d="M4565 6105 c-232 -174 -373 -293 -517 -434 -49 -47 -88 -89 -88 -92
0 -4 15 -14 34 -23 65 -31 80 -24 190 82 112 107 260 233 377 320 78 58 77 56
125 186 8 21 13 43 12 48 -2 6 -62 -34 -133 -87z"/>
<path d="M4519 5877 c-136 -108 -241 -198 -236 -203 1 -2 21 3 42 11 30 10 67
13 145 8 88 -5 111 -3 138 11 44 23 72 71 72 123 0 59 -19 143 -33 143 -7 0
-64 -42 -128 -93z"/>
<path d="M5694 6356 c-65 -16 -110 -44 -166 -104 -73 -78 -131 -194 -159 -317
-14 -63 -4 -85 40 -85 61 0 132 -31 181 -78 l49 -48 11 30 c9 27 7 32 -31 67
-45 41 -131 79 -180 79 -35 0 -35 -4 12 120 35 93 75 156 130 210 57 55 90 71
160 77 50 5 64 2 102 -20 49 -29 68 -53 86 -109 10 -30 18 -38 37 -38 67 0
-15 153 -108 201 -50 25 -103 31 -164 15z"/>
<path d="M2569 5146 c-130 -194 -188 -426 -144 -574 43 -144 187 -203 369
-153 141 39 286 118 286 157 0 23 -27 16 -103 -25 -156 -86 -327 -119 -403
-78 -45 24 -92 81 -101 124 -29 146 30 359 150 537 52 76 54 81 31 90 -26 10
-28 8 -85 -78z"/>
<path d="M1530 6331 c-126 -39 -170 -120 -170 -313 0 -119 -1 -122 -67 -212
-59 -80 -73 -108 -82 -168 -17 -105 17 -179 109 -238 27 -18 60 -49 73 -70
l22 -38 140 150 c115 123 364 364 568 549 37 34 37 35 39 116 1 93 -15 133
-72 170 -31 22 -43 23 -199 23 -137 0 -177 4 -229 20 -67 21 -91 23 -132 11z"/>
<path d="M1895 5736 c-143 -139 -307 -304 -364 -365 -97 -104 -104 -115 -95
-139 5 -15 14 -27 20 -27 6 0 49 45 95 100 117 141 360 386 511 517 70 61 128
113 128 114 0 9 -24 54 -29 54 -3 0 -123 -114 -266 -254z"/>
<path d="M2090 5697 c-259 -242 -529 -534 -515 -557 5 -7 22 -9 48 -4 75 12
121 34 152 72 82 101 241 265 358 370 72 64 151 136 176 159 l46 42 -40 40
c-21 23 -42 41 -45 41 -3 0 -84 -74 -180 -163z"/>
<path d="M2265 5648 c-124 -112 -295 -279 -385 -378 l-68 -75 160 0 160 0 28
32 c31 34 55 104 66 187 7 47 13 57 81 123 44 44 74 82 74 95 3 39 -2 93 -9
99 -4 4 -52 -34 -107 -83z"/>
<path d="M4047 4040 c-24 -21 -56 -65 -71 -96 -29 -59 -65 -228 -52 -241 19
-19 41 17 53 90 15 90 59 183 103 221 52 44 59 37 71 -75 5 -44 15 -93 22
-110 11 -27 14 -28 30 -17 15 11 16 19 8 40 -5 14 -13 55 -16 90 -9 88 -13
104 -31 122 -28 28 -71 20 -117 -24z"/>
</g>
</svg>
